<svg xmlns="http://www.w3.org/2000/svg" version="1.1" xmlns:xlink="http://www.w3.org/1999/xlink" xmlns:svgjs="http://svgjs.dev/svgjs" width="1000" height="1461" viewBox="0 0 1000 1461"><g transform="matrix(1,0,0,1,0.3916305740256689,0.5914979757084211)"><svg viewBox="0 0 169 247" data-background-color="#f9f9f9" preserveAspectRatio="xMidYMid meet" height="1461" width="1000" xmlns="http://www.w3.org/2000/svg" xmlns:xlink="http://www.w3.org/1999/xlink"><g id="tight-bounds" transform="matrix(1,0,0,1,-0.0661855670103364,-0.09999999999999432)"><svg viewBox="0 0 169.13237113402064 247.2" height="247.2" width="169.13237113402064"><g><svg viewBox="0 0 169.13237113402064 247.2" height="247.2" width="169.13237113402064"><g><svg viewBox="0 0 169.13237113402064 247.2" height="247.2" width="169.13237113402064"><g><svg viewBox="0 0 169.13237113402064 247.2" height="247.2" width="169.13237113402064"><g id="textblocktransform"><svg viewBox="0 0 169.13237113402064 247.2" height="247.2" width="169.13237113402064" id="textblock"><g><svg viewBox="0 0 169.13237113402064 247.2" height="247.2" width="169.13237113402064"><g transform="matrix(1,0,0,1,0,0)"><svg width="169.13237113402064" viewBox="2.2 -35 101.25 142.49999999999997" height="247.2" data-palette-color="#030303"><svg></svg><svg></svg><svg></svg><g class="wordmark-text-0" data-fill-palette-color="primary" id="text-0"><path d="M3.9-17.3c0-3.5 1.417-5.9 4.25-7.2v0c1.367-0.633 3-0.95 4.9-0.95v0c1.233 0 2.427 0.15 3.58 0.45 1.147 0.3 2.12 0.733 2.92 1.3v0-11.3h2.8v35l-2.75 0.25c-2.167 0.233-3.867 0.35-5.1 0.35v0c-1.233 0-2.39-0.117-3.47-0.35-1.087-0.233-2.163-0.617-3.23-1.15v0c-1.2-0.6-2.15-1.483-2.85-2.65-0.7-1.167-1.05-2.6-1.05-4.3v0zM19.55-21.25c-0.9-0.5-1.933-0.91-3.1-1.23-1.167-0.313-2.317-0.47-3.45-0.47v0c-1.867 0-3.39 0.457-4.57 1.37-1.187 0.92-1.78 2.397-1.78 4.43v0 9.35c0 3.9 2.683 5.85 8.05 5.85v0c1.267 0 2.883-0.15 4.85-0.45v0zM46.55-9.2c0 2.8-0.767 5.117-2.3 6.95-1.533 1.833-3.85 2.75-6.95 2.75v0c-3.1 0-5.443-0.923-7.03-2.77-1.58-1.853-2.37-4.163-2.37-6.93v0-6.6c0-3.167 0.807-5.593 2.42-7.28 1.62-1.68 3.947-2.52 6.98-2.52v0c2.9 0 5.167 0.873 6.8 2.62 1.633 1.753 2.45 4.147 2.45 7.18v0zM43.75-15.8c0-2.5-0.573-4.333-1.72-5.5-1.153-1.167-2.73-1.75-4.73-1.75v0c-2.067 0-3.683 0.583-4.85 1.75-1.167 1.167-1.75 3-1.75 5.5v0 7.1c0 2 0.593 3.617 1.78 4.85 1.18 1.233 2.787 1.85 4.82 1.85v0c2.067 0 3.66-0.61 4.78-1.83 1.113-1.213 1.67-2.837 1.67-4.87v0zM69.15 0l-5.05-20.25-5.1 20.25h-3.85l-7.65-25.05h2.95l6.65 22.15 5.65-22.15h2.85l5.5 22.15 6.7-22.15h2.95l-7.75 25.05zM100.7 0v-17.15c0-2.033-0.59-3.51-1.77-4.43-1.187-0.913-2.713-1.37-4.58-1.37v0c-1.133 0-2.283 0.157-3.45 0.47-1.167 0.32-2.2 0.73-3.1 1.23v0 21.25h-2.8v-25.05h2.8l-0.2 1.7c0.8-0.7 1.817-1.227 3.05-1.58 1.233-0.347 2.517-0.52 3.85-0.52v0c1.833 0 3.4 0.3 4.7 0.9v0c1.333 0.6 2.377 1.5 3.13 2.7 0.747 1.2 1.12 2.717 1.12 4.55v0 17.3z" fill="#030303" fill-rule="nonzero" stroke="none" stroke-width="1" stroke-linecap="butt" stroke-linejoin="miter" stroke-miterlimit="10" stroke-dasharray="" stroke-dashoffset="0" font-family="none" font-weight="none" font-size="none" text-anchor="none" style="mix-blend-mode: normal" data-fill-palette-color="primary" opacity="1"></path><path d="M7.5 49.15c-1.867-0.533-3.217-1.383-4.05-2.55-0.833-1.167-1.25-2.733-1.25-4.7v0-28.4h2.8v9.95h6l-1.2 2.65h-4.8v15.8c0 2.667 1.1 4.367 3.3 5.1v0zM34.7 39.3c0 2.8-0.767 5.117-2.3 6.95-1.533 1.833-3.85 2.75-6.95 2.75v0c-3.1 0-5.44-0.923-7.02-2.77-1.587-1.853-2.38-4.163-2.38-6.93v0-6.6c0-3.167 0.81-5.593 2.43-7.28 1.613-1.68 3.937-2.52 6.97-2.52v0c2.9 0 5.167 0.873 6.8 2.62 1.633 1.753 2.45 4.147 2.45 7.18v0zM31.9 32.7c0-2.5-0.573-4.333-1.72-5.5-1.153-1.167-2.73-1.75-4.73-1.75v0c-2.067 0-3.683 0.583-4.85 1.75-1.167 1.167-1.75 3-1.75 5.5v0 7.1c0 2 0.593 3.617 1.78 4.85 1.18 1.233 2.787 1.85 4.82 1.85v0c2.067 0 3.66-0.61 4.78-1.83 1.113-1.213 1.67-2.837 1.67-4.87v0z" fill="#030303" fill-rule="nonzero" stroke="none" stroke-width="1" stroke-linecap="butt" stroke-linejoin="miter" stroke-miterlimit="10" stroke-dasharray="" stroke-dashoffset="0" font-family="none" font-weight="none" font-size="none" text-anchor="none" style="mix-blend-mode: normal" data-fill-palette-color="primary" opacity="1"></path><path d="M18.9 97v-17.15c0-2.033-0.59-3.51-1.77-4.43-1.187-0.913-2.713-1.37-4.58-1.37v0c-1.133 0-2.283 0.157-3.45 0.47-1.167 0.32-2.2 0.73-3.1 1.23v0 21.25h-2.8v-35h2.8v11.3c0.833-0.567 1.833-1.01 3-1.33 1.167-0.313 2.383-0.47 3.65-0.47v0c1.733 0 3.317 0.317 4.75 0.95v0c1.333 0.6 2.377 1.5 3.13 2.7 0.747 1.2 1.12 2.717 1.12 4.55v0 17.3zM45.75 97c-3.6 0.367-6.2 0.55-7.8 0.55v0c-3.5 0-6.283-0.65-8.35-1.95-2.067-1.3-3.1-3.65-3.1-7.05v0-4.15c0-3.3 1.15-5.517 3.45-6.65v0c1.1-0.567 2.5-0.85 4.2-0.85v0c1.567 0 3.15 0.257 4.75 0.77 1.6 0.52 2.95 1.197 4.05 2.03v0c0-1.833-0.533-3.293-1.6-4.38-1.067-1.08-3.117-1.62-6.15-1.62v0l0.15-2.15c3.2 0 5.56 0.507 7.08 1.52 1.513 1.02 2.447 2.23 2.8 3.63 0.347 1.4 0.52 3.2 0.52 5.4v0zM42.95 81.85c-1.367-0.633-2.823-1.183-4.37-1.65-1.553-0.467-2.98-0.7-4.28-0.7v0c-3.367 0-5.05 1.683-5.05 5.05v0 4.35c0 2.167 0.75 3.74 2.25 4.72 1.5 0.987 3.633 1.48 6.4 1.48v0c1.433 0 3.117-0.133 5.05-0.4v0zM66.45 97v-17.15c0-2.033-0.59-3.51-1.77-4.43-1.187-0.913-2.713-1.37-4.58-1.37v0c-1.133 0-2.283 0.157-3.45 0.47-1.167 0.32-2.2 0.73-3.1 1.23v0 21.25h-2.8v-25.05h2.8l-0.2 1.7c0.8-0.7 1.817-1.227 3.05-1.58 1.233-0.347 2.517-0.52 3.85-0.52v0c1.833 0 3.4 0.3 4.7 0.9v0c1.333 0.6 2.377 1.5 3.13 2.7 0.747 1.2 1.12 2.717 1.12 4.55v0 17.3zM87.15 105.35c2.2-0.833 3.3-2.567 3.3-5.2v0-6.2c-1.4 2.433-3.65 3.65-6.75 3.65v0c-2.933 0-5.217-0.8-6.85-2.4-1.633-1.6-2.45-3.933-2.45-7v0-7.45c0-2.933 0.86-5.21 2.58-6.83 1.713-1.613 4.02-2.42 6.92-2.42v0c3.1 0 5.35 1.117 6.75 3.35v0l-0.2-2.9h2.8v28.25c0 2-0.417 3.567-1.25 4.7-0.833 1.133-2.2 2-4.1 2.6v0zM90.45 80.2c0-2.067-0.667-3.61-2-4.63-1.333-1.013-2.917-1.52-4.75-1.52v0c-1.767 0-3.29 0.54-4.57 1.62-1.287 1.087-1.93 2.863-1.93 5.33v0 7.65c0 2.1 0.593 3.683 1.78 4.75 1.18 1.067 2.753 1.6 4.72 1.6v0c1.867 0 3.46-0.577 4.78-1.73 1.313-1.147 1.97-2.787 1.97-4.92v0z" fill="#030303" fill-rule="nonzero" stroke="none" stroke-width="1" stroke-linecap="butt" stroke-linejoin="miter" stroke-miterlimit="10" stroke-dasharray="" stroke-dashoffset="0" font-family="none" font-weight="none" font-size="none" text-anchor="none" style="mix-blend-mode: normal" data-fill-palette-color="primary" opacity="1"></path></g></svg></g></svg></g></svg></g></svg></g></svg></g></svg></g><defs></defs></svg><rect width="169.13237113402064" height="247.2" fill="none" stroke="none" visibility="hidden"></rect></g></svg></g></svg>